<svg width="1080" height="1080" viewBox="0 0 1080 1080" fill="none" xmlns="http://www.w3.org/2000/svg">
<path d="M698.304 958.196H936.013C951.766 958.196 960.496 950.646 960.496 937.453C960.496 924.105 951.766 917.07 936.013 917.07H840.71V163.284H936.013C951.766 163.284 960.496 155.751 960.496 142.221C960.496 129.551 951.766 122 936.013 122H698.304C682.215 122 674 129.551 674 142.221C674 155.751 682.215 163.284 698.304 163.284H793.267V917.07H698.304C682.215 917.07 674 924.105 674 937.453C674 950.646 682.215 958.196 698.304 958.196Z" fill="black"/>
<path d="M267.664 847C245.625 847 232.401 836.948 225.588 814.524L123.805 477.394C121.801 470.822 121 465.022 121 459.996C121 442.212 134.224 431 155.061 431C172.292 431 181.509 438.732 186.718 458.45L268.866 765.037H270.469L357.827 461.156C363.437 441.439 377.462 431 398.7 431C419.538 431 432.762 441.052 438.372 460.77L526.531 765.037H528.134L610.282 458.45C615.491 438.732 624.708 431 641.939 431C662.776 431 676 442.212 676 459.996C676 465.022 675.199 470.822 673.195 477.394L571.412 814.524C565 836.175 550.574 847 528.935 847C505.693 847 492.469 837.335 485.657 814.524L399.101 528.814H397.498L311.343 814.524C304.931 835.788 289.704 847 267.664 847Z" fill="black"/>
</svg>
