<svg width="783" height="837" viewBox="0 0 783 837" fill="none" xmlns="http://www.w3.org/2000/svg">
<path d="M520.808 836.196H758.517C774.269 836.196 783 828.646 783 815.453C783 802.105 774.269 795.07 758.517 795.07H663.214V41.2845H758.517C774.269 41.2845 783 33.7505 783 20.2211C783 7.5506 774.269 0 758.517 0H520.808C504.719 0 496.504 7.5506 496.504 20.2211C496.504 33.7505 504.719 41.2845 520.808 41.2845H615.771V795.07H520.808C504.719 795.07 496.504 802.105 496.504 815.453C496.504 828.646 504.719 836.196 520.808 836.196Z" fill="black"/>
<path d="M131.206 722.187C111.489 722.187 99.6593 712.995 93.565 692.488L2.50941 384.177C0.716973 378.167 0 372.863 0 368.267C0 352.003 11.8301 341.749 30.4714 341.749C45.8863 341.749 54.1315 348.821 58.7918 366.853L132.282 647.231H133.715L211.866 369.328C216.884 351.296 229.431 341.749 248.431 341.749C267.072 341.749 278.903 350.942 283.921 368.974L362.788 647.231H364.222L437.712 366.853C442.372 348.821 450.618 341.749 466.033 341.749C484.674 341.749 496.504 352.003 496.504 368.267C496.504 372.863 495.787 378.167 493.994 384.177L402.939 692.488C397.203 712.288 384.298 722.187 364.939 722.187C344.147 722.187 332.317 713.348 326.223 692.488L248.79 431.202H247.356L170.281 692.488C164.545 711.934 150.923 722.187 131.206 722.187Z" fill="black"/>
</svg>
